<?xml version="1.0" encoding="UTF-8" standalone="no"?>
<!-- Created with Inkscape (http://www.inkscape.org/) -->

<svg
   xmlns:dc="http://purl.org/dc/elements/1.1/"
   xmlns:cc="http://creativecommons.org/ns#"
   xmlns:rdf="http://www.w3.org/1999/02/22-rdf-syntax-ns#"
   xmlns:svg="http://www.w3.org/2000/svg"
   xmlns="http://www.w3.org/2000/svg"
   xmlns:xlink="http://www.w3.org/1999/xlink"
   xmlns:sodipodi="http://sodipodi.sourceforge.net/DTD/sodipodi-0.dtd"
   xmlns:inkscape="http://www.inkscape.org/namespaces/inkscape"
   version="1.1"
   width="1077"
   height="231"
   id="svg2"
   inkscape:version="0.48.4 r9939"
   sodipodi:docname="fb_logo2.svg"
   inkscape:export-filename="/home/cleber/git/2015-1-dsm/DSM/app/src/main/res/drawable/fb_logo.png"
   inkscape:export-xdpi="90"
   inkscape:export-ydpi="90">
  <sodipodi:namedview
     pagecolor="#ffffff"
     bordercolor="#666666"
     borderopacity="1"
     objecttolerance="10"
     gridtolerance="10"
     guidetolerance="10"
     inkscape:pageopacity="0"
     inkscape:pageshadow="2"
     inkscape:window-width="1920"
     inkscape:window-height="1056"
     id="namedview10"
     showgrid="false"
     inkscape:zoom="0.27112349"
     inkscape:cx="538.5"
     inkscape:cy="115.5"
     inkscape:window-x="0"
     inkscape:window-y="24"
     inkscape:window-maximized="1"
     inkscape:current-layer="svg2" />
  <metadata
     id="metadata8">
    <rdf:RDF>
      <cc:Work
         rdf:about="">
        <dc:format>image/svg+xml</dc:format>
        <dc:type
           rdf:resource="http://purl.org/dc/dcmitype/StillImage" />
        <dc:title></dc:title>
      </cc:Work>
    </rdf:RDF>
  </metadata>
  <defs
     id="defs6">
    <linearGradient
       id="linearGradient3784">
      <stop
         id="stop3786"
         style="stop-color:#d9dce2;stop-opacity:1"
         offset="0" />
      <stop
         id="stop3788"
         style="stop-color:#ffffff;stop-opacity:1"
         offset="1" />
    </linearGradient>
    <linearGradient
       x1="521.31921"
       y1="218.726"
       x2="521.31921"
       y2="17.247972"
       id="linearGradient3790"
       xlink:href="#linearGradient3784"
       gradientUnits="userSpaceOnUse" />
  </defs>
  <path
     d="m 161.77595,216.58617 c -14.65075,-4.23549 -23.47781,-15.10819 -25.7958,-31.77388 -1.9808,-14.24146 1.83066,-27.83508 9.76211,-34.81662 8.46992,-7.45553 20.44642,-9.94482 48.00774,-9.97834 L 208,140 l 0,-6.53212 c 0,-8.76829 -1.90963,-13.09245 -6.71401,-15.20316 -3.09008,-1.35756 -8.24218,-1.73741 -28.02932,-2.06649 -24.17419,-0.40204 -24.24205,-0.40931 -23.79476,-2.55071 C 149.70862,112.46638 150.40076,105.875 151,99 c 0.59924,-6.875 1.31283,-13.551851 1.58576,-14.837447 l 0.49624,-2.337448 30.209,0.423896 c 32.00367,0.449079 36.32219,1.001653 46.63191,5.966767 5.76739,2.77755 11.78401,8.867432 14.23503,14.408382 4.42635,10.0065 4.80638,15.21497 4.8247,66.12585 L 249,217 232.10699,217 C 213.92226,217 214,217.02325 214,211.58488 c 0,-3.15046 -0.88858,-3.70257 -3.36462,-2.09057 -1.17446,0.76462 -6.41038,2.82769 -11.63538,4.5846 -8.03013,2.70013 -11.27931,3.24687 -21,3.53367 -7.69236,0.22696 -13.06413,-0.11289 -16.22405,-1.02641 z m 40.82196,-31.00236 5.40209,-2.47316 0,-7.63281 0,-7.6328 -13.59065,0.32748 c -12.88257,0.31042 -13.69014,0.45048 -15.5,2.68826 -2.11565,2.61587 -2.60842,9.96449 -0.88421,13.1862 2.95882,5.52861 14.30375,6.23814 24.57277,1.53683 z m 102.88506,30.89302 c -21.5914,-4.74512 -34.49766,-16.4946 -40.14651,-36.54823 -1.51687,-5.38496 -1.81293,-10.32483 -1.82365,-30.4286 -0.009,-17.15481 0.38176,-25.56869 1.37059,-29.5 4.88525,-19.42236 15.83415,-30.796411 35.6166,-36.999592 13.26636,-4.159932 39.30078,-3.722627 61.25,1.028827 l 5.25,1.136493 0,16.984522 c 0,15.70312 -0.13203,16.9461 -1.75,16.47515 -6.17149,-1.79633 -25.60047,-4.00203 -35.75,-4.05856 -10.57378,-0.0589 -12.5535,0.20583 -16.65703,2.22736 -7.50402,3.69672 -7.84297,5.09575 -7.84297,32.37253 0,26.57376 0.46305,28.54285 7.59163,32.28278 3.46407,1.81739 5.55671,2.03407 18.40837,1.90605 9.46622,-0.0943 18.23194,-0.82311 25.25,-2.09938 l 10.75,-1.95493 0,16.74963 0,16.74964 -4.75,1.09666 c -17.76914,4.10246 -44.34304,5.31005 -56.76703,2.57965 z M 421.5,216.51792 c -21.2017,-4.67524 -32.65621,-14.392 -39.19573,-33.24939 -2.58423,-7.4519 -2.70981,-8.76712 -3.08115,-32.26853 -0.43322,-27.41735 0.43665,-34.40189 5.67999,-45.60665 8.30363,-17.744445 27.6249,-26.245058 57.09689,-25.120426 25.35698,0.967605 40.31937,8.583375 48.4721,24.672016 4.43974,8.76141 5.49701,15.81961 5.51312,36.80506 L 496,161 l -38.09819,0 -38.09818,0 0.69386,6.25 c 1.37394,12.37586 5.80132,15.77979 21.50794,16.53612 10.38288,0.49997 30.85162,-0.9949 43.32643,-3.16421 L 493,179.28846 l 0,16.77291 0,16.7729 -5.25,1.13433 c -18.71968,4.04461 -53.41461,5.37969 -66.25,2.54932 z m 33.33196,-89.48595 c -0.63041,-11.1568 -5.85056,-16.02741 -17.18083,-16.03042 -7.02452,-0.002 -12.20707,2.21991 -14.68579,6.29585 -1.89381,3.11411 -3.60826,13.85332 -2.49832,15.64924 0.41482,0.67119 6.8384,1.05336 17.70484,1.05336 l 17.05383,0 z M 530.5,216.01589 c -7.7,-1.04516 -15.46482,-2.17213 -17.25515,-2.50437 l -3.25514,-0.60408 0.25514,-93.20372 L 510.5,26.5 529,23.305706 c 10.175,-1.756862 19.5125,-3.219362 20.75,-3.25 L 552,20 l 0,32.365718 0,32.365717 6.75,-1.939188 c 4.33538,-1.245498 11.41369,-2.139593 19.78718,-2.499411 28.83342,-1.239005 44.08316,6.157466 49.73417,24.122204 2.11952,6.73804 2.22865,8.72531 2.22865,40.58496 0,29.67542 -0.20988,34.185 -1.83833,39.5 -5.18967,16.93817 -14.63269,25.59121 -33.50756,30.70434 -11.26574,3.05186 -45.02713,3.47563 -64.65411,0.81155 z m 51.17831,-34.60784 c 7.60534,-5.63846 8.71741,-10.9706 8.17157,-39.18104 -0.38217,-19.75229 -0.66622,-20.76092 -7.22588,-25.65841 -4.03493,-3.01251 -15.95038,-2.7495 -24.124,0.53249 l -6,2.4092 -0.26398,32.34331 -0.26399,32.3433 13.4423,-0.34845 c 11.74634,-0.30449 13.7983,-0.61238 16.26398,-2.4404 z M 689.5,217.35033 c -14.57322,-2.33053 -25.22586,-7.2853 -32.85141,-15.2799 C 645.7232,190.6163 643,180.05353 643,149.13013 c 0,-31.45568 2.9776,-42.82202 14.14286,-53.987273 9.54409,-9.544096 22.01962,-13.963708 41.85714,-14.828418 33.50056,-1.460275 53.79748,9.399404 61.69419,33.008911 2.70582,8.08983 2.73523,8.46333 2.77033,35.17665 0.0337,25.61853 -0.085,27.38374 -2.31908,34.5 -3.07697,9.80111 -5.99271,14.61968 -12.66476,20.92982 -9.81193,9.27973 -21.45393,13.0375 -41.98068,13.55043 -7.7,0.19241 -15.35,0.13394 -17,-0.12992 z m 21.60078,-34.48885 c 1.86957,-0.62619 4.45448,-2.08869 5.74423,-3.25 4.89605,-4.40846 5.15499,-5.96129 5.15499,-30.91394 0,-22.62303 -0.075,-23.51305 -2.2534,-26.74559 -3.62408,-5.37778 -8.07886,-7.4011 -16.21948,-7.36673 -7.90079,0.0333 -11.83569,1.61592 -15.83476,6.36854 -3.38174,4.01897 -3.96425,9.39273 -3.53849,32.64346 0.3185,17.39385 0.5212,19.18217 2.53933,22.40278 3.43994,5.48958 8.14642,7.75971 16.40758,7.91405 2.53042,0.0473 6.13042,-0.42639 8,-1.05257 z M 820,216.86784 c -23.24788,-3.79726 -37.58503,-16.2787 -42.46125,-36.96535 -2.13117,-9.04115 -2.14416,-52.70905 -0.0184,-61.72625 4.5026,-19.099012 15.80421,-30.218729 36.47965,-35.892504 9.20589,-2.52629 35.73768,-2.469186 45,0.09685 19.65684,5.44574 30.70065,16.365392 35.47838,35.079514 2.19953,8.61542 2.18094,54.57977 -0.0255,63.0798 -5.29241,20.38828 -18.69783,32.19083 -40.83386,35.95137 -9.63232,1.63637 -24.86177,1.80695 -33.61901,0.37657 z m 27.09961,-35.49901 c 1.75523,-1.02785 4.13837,-3.13933 5.29586,-4.69216 2.00624,-2.69147 2.10453,-3.97581 2.10453,-27.5 0,-24.23679 -0.0415,-24.73487 -2.32884,-27.94176 -3.42577,-4.80302 -7.54845,-6.54387 -15.67653,-6.61961 -9.22327,-0.086 -14.1281,2.30452 -17.24463,8.40453 -2.11865,4.14686 -2.25,5.61019 -2.25,25.06706 0,11.36471 0.27385,22.03238 0.60856,23.70593 0.86305,4.31521 5.2138,9.05339 9.89144,10.77224 5.21231,1.91532 15.3419,1.29708 19.59961,-1.19623 z M 66.666667,216.33333 C 66.3,215.96667 66,193.24167 66,165.83333 L 66,116 l -10,0 -10,0 0,-17 0,-17 10,0 10,0 0.03088,-11.75 C 66.089871,47.79876 68.849345,36.720594 76.50327,28.207587 84.971196,18.789215 95.35617,16.019683 122.25,16.007554 L 139,16 l 0,17.5 0,17.5 -11.95295,0 C 108.73637,51 108,51.736367 108,70.047053 L 108,82 l 15.5,0 c 11.76763,0 15.48451,0.300997 15.43569,1.25 -0.0354,0.6875 -0.82287,8.225 -1.75,16.75 l -1.68569,15.5 -13.75,0.27822 -13.75,0.27822 0,50.47178 0,50.47178 -20.333333,0 c -11.183334,0 -20.633334,-0.3 -21,-0.66667 z M 908.46071,215.75 c -0.26209,-0.6875 -0.36047,-43.55 -0.21862,-95.25 L 908.5,26.5 927,23.305706 c 10.175,-1.756862 19.50901,-3.219362 20.74225,-3.25 L 949.98451,20 950.24225,80.424779 950.5,140.84956 969,111.42955 l 18.5,-29.420007 22.25,-0.0048 c 12.2375,-0.0026 22.25,0.171164 22.25,0.386196 0,0.215033 -9.0693,14.727533 -20.154,32.250001 -11.0846,17.52247 -20.14831,32.30903 -20.14145,32.85903 0.007,0.55 8.84545,15.68592 19.64135,33.63539 10.7959,17.94946 19.9077,33.36196 20.2485,34.25 0.5587,1.45607 -1.5461,1.61461 -21.4359,1.61461 l -22.05547,0 -19.05049,-31.75 -19.0505,-31.75 -10e-4,31.75 L 950,217 l -20.53138,0 c -15.5043,0 -20.64807,-0.30606 -21.00791,-1.25 z"
     id="path3003"
     style="fill:url(#linearGradient3790);fill-opacity:1" />
</svg>
